<?xml version="1.0" encoding="UTF-8"?>
<svg width="16px" height="16px" viewBox="0 0 16 16" version="1.1" xmlns="http://www.w3.org/2000/svg" xmlns:xlink="http://www.w3.org/1999/xlink">
    <!-- Generator: sketchtool 42 (36781) - http://www.bohemiancoding.com/sketch -->
    <title>1Password</title>
    <desc>Created with sketchtool.</desc>
    <defs>
        <circle id="path-1" cx="8" cy="8" r="7.5"></circle>
        <mask id="mask-2" maskContentUnits="userSpaceOnUse" maskUnits="objectBoundingBox" x="0" y="0" width="15" height="15" fill="white">
            <use xlink:href="#path-1"></use>
        </mask>
    </defs>
    <g id="Page-1" stroke="none" stroke-width="1" fill="none" fill-rule="evenodd">
        <g id="1Password">
            <g id="Group">
                <polygon id="Combined-Shape" stroke="#F2F2F2" fill="#3D3D3D" points="8.52685547 9.50360107 9.4642334 9.50360107 9.4642334 11.5444727 6.50219727 11.5444727 6.50219727 6.61981201 7.52087402 6.61981201 7.52087402 6.49890137 6.50219727 6.49890137 6.50219727 4.54634058 9.4642334 4.54634058 9.4642334 9.39996338 8.52685547 9.39996338"></polygon>
                <path d="M8,15 C4.13400675,15 1,11.8659932 1,8 C1,4.13400675 4.13400675,1 8,1 C11.8659932,1 15,4.13400675 15,8 C15,11.8659932 11.8659932,15 8,15 Z M8,13 C10.7614237,13 13,10.7614237 13,8 C13,5.23857625 10.7614237,3 8,3 C5.23857625,3 3,5.23857625 3,8 C3,10.7614237 5.23857625,13 8,13 Z" id="Combined-Shape" fill="#3E3E3E"></path>
                <use id="Oval" stroke="#F2F2F2" mask="url(#mask-2)" stroke-width="2" xlink:href="#path-1"></use>
                <rect id="Rectangle" fill="#3E3E3E" x="7" y="5.4000001" width="1.5" height="1"></rect>
                <rect id="Rectangle-Copy" fill="#3D3D3D" x="7.46999979" y="9.60000038" width="1.5" height="1"></rect>
            </g>
        </g>
    </g>
</svg>