<?xml version="1.0" encoding="UTF-8"?>
<svg width="16px" height="16px" viewBox="0 0 16 16" version="1.1" xmlns="http://www.w3.org/2000/svg" xmlns:xlink="http://www.w3.org/1999/xlink">
    <!-- Generator: sketchtool 42 (36781) - http://www.bohemiancoding.com/sketch -->
    <title>Eagle</title>
    <desc>Created with sketchtool.</desc>
    <defs>
        <path d="M0.1439375,7.9506 C-0.0100625,6.260975 0.6628125,4.871475 1.7390625,3.63335 C1.7775625,3.588725 1.8186875,3.54585 1.8571875,3.501225 C1.8650625,3.490725 1.8650625,3.4741 1.8843125,3.408475 C1.1475625,3.8801 0.5639375,4.460225 0.0004375,5.070975 C0.1150625,4.6431 0.2393125,4.2266 0.4326875,3.833725 C1.4048125,1.859725 2.9649375,0.618975 5.1121875,0.15435 C6.7834375,-0.207025 8.3698125,0.071225 9.8494375,0.930475 C9.9168125,0.968975 10.0638125,0.9856 9.9325625,1.1256 C9.3288125,1.77135 8.9140625,2.533475 8.5903125,3.3481 C8.3461875,3.338475 8.1046875,3.3516 7.8614375,3.383975 C6.4859375,3.56335 5.2810625,4.120725 4.2581875,5.046475 C3.2475625,5.961725 2.5703125,7.090475 2.2518125,8.4231 C2.0741875,9.167725 2.0094375,9.9176 2.0925625,10.6841 C2.1336875,11.066475 2.2325625,11.435725 2.2806875,11.815475 C0.9996875,10.8416 0.2891875,9.549225 0.1439375,7.9506 Z" id="path-1"></path>
        <mask id="mask-2" maskContentUnits="userSpaceOnUse" maskUnits="objectBoundingBox" x="-1" y="-1" width="11.9848382" height="13.8156">
            <rect x="-0.9995625" y="-1.00012502" width="11.9848382" height="13.8156" fill="white"></rect>
            <use xlink:href="#path-1" fill="black"></use>
        </mask>
        <path d="M9.31603742,8.18964993 C9.71678742,8.80914993 10.2444124,9.31402493 10.8376624,9.75414993 C11.1351624,9.97639993 11.4606624,10.1478999 11.7992874,10.2913999 C11.9524124,10.3570249 11.9410374,10.4068999 11.8579124,10.5188999 C11.0879124,11.5496499 10.1245374,12.3301499 8.92141242,12.8052749 C8.63966242,12.9163999 8.35178742,13.0056499 8.05866242,13.0843999 C7.92041242,13.1220249 7.86178742,13.0791499 7.78916242,12.9758999 C6.91678742,11.7307749 6.69978742,10.3622749 7.05591242,8.90277493 C7.28778742,7.95427493 7.81103742,7.17377493 8.56266242,6.49477493 C8.73066242,7.12914993 8.98528742,7.68127493 9.31603742,8.18964993 Z" id="path-3"></path>
        <mask id="mask-4" maskContentUnits="userSpaceOnUse" maskUnits="objectBoundingBox" x="-1" y="-1" width="7.02575661" height="8.60308301">
            <rect x="5.89233494" y="5.49477493" width="7.02575661" height="8.60308301" fill="white"></rect>
            <use xlink:href="#path-3" fill="black"></use>
        </mask>
        <path d="M2.09229992,10.6898749 C2.00917492,9.92337493 2.07392492,9.17349993 2.25154992,8.42887493 C2.57004992,7.09624993 3.24729992,5.96749993 4.25792492,5.05224993 C5.28079992,4.12649993 6.48567492,3.56912493 7.86117492,3.38974993 C8.10442492,3.35737493 8.34592492,3.34424993 8.59004992,3.35387493 C8.45792492,3.96812493 8.30304992,4.58499993 8.38354992,5.21412493 C8.42642492,5.55537493 8.31442492,5.74262493 8.06417492,5.95174993 C7.05704992,6.79612493 6.43754992,7.89599993 6.21092492,9.17437493 C5.97379992,10.5139999 6.20392492,11.8046249 6.89692492,12.9963749 C7.05879992,13.2746249 7.05879992,13.2833749 6.72804992,13.2938749 C5.83992492,13.3201249 4.97629992,13.1879999 4.14067492,12.8791249 C3.46342492,12.6271249 2.83954992,12.2797499 2.28042492,11.8212499 C2.23229992,11.4414999 2.13342492,11.0722499 2.09229992,10.6898749 Z" id="path-5"></path>
        <mask id="mask-6" maskContentUnits="userSpaceOnUse" maskUnits="objectBoundingBox" x="-1" y="-1" width="8.533614" height="11.9463408">
            <rect x="1.05643592" y="2.35078688" width="8.533614" height="11.9463408" fill="white"></rect>
            <use xlink:href="#path-5" fill="black"></use>
        </mask>
        <path d="M10.4832875,1.5323 C10.5769125,1.428175 10.6355375,1.421175 10.7484125,1.517425 C11.6881625,2.318925 12.3575375,3.2998 12.7626625,4.4653 C12.8282875,4.656925 12.7784125,4.663925 12.6060375,4.63855 C11.4571625,4.4653 10.3520375,4.616675 9.3029125,5.124175 C9.1620375,5.192425 9.1007875,5.181925 9.1182875,5.010425 C9.1252875,4.9448 9.1200375,4.877425 9.1200375,4.7523 C9.1699125,3.549175 9.6441625,2.4668 10.4832875,1.5323 Z" id="path-7"></path>
        <mask id="mask-8" maskContentUnits="userSpaceOnUse" maskUnits="objectBoundingBox" x="-1" y="-1" width="5.67509721" height="5.71393691">
            <rect x="8.11537203" y="0.449498115" width="5.67509721" height="5.71393691" fill="white"></rect>
            <use xlink:href="#path-7" fill="black"></use>
        </mask>
    </defs>
    <g id="Page-1" stroke="none" stroke-width="1" fill="none" fill-rule="evenodd">
        <g id="Eagle">
            <g id="Group" transform="translate(1.700000, 1.400000)">
                <g id="Fill-1">
                    <use fill="#3E3E3E" fill-rule="evenodd" xlink:href="#path-1"></use>
                    <use stroke="#F2F2F2" mask="url(#mask-2)" stroke-width="2" stroke-linejoin="round" xlink:href="#path-1"></use>
                </g>
                <g id="Fill-4">
                    <use fill="#3E3E3E" fill-rule="evenodd" xlink:href="#path-3"></use>
                    <use stroke="#F2F2F2" mask="url(#mask-4)" stroke-width="2" stroke-linejoin="round" xlink:href="#path-3"></use>
                </g>
                <g id="Fill-1">
                    <use fill="#3E3E3E" fill-rule="evenodd" xlink:href="#path-5"></use>
                    <use stroke="#F2F2F2" mask="url(#mask-6)" stroke-width="2" stroke-linejoin="round" xlink:href="#path-5"></use>
                </g>
                <g id="Fill-4">
                    <use fill="#3E3E3E" fill-rule="evenodd" xlink:href="#path-7"></use>
                    <use stroke="#F2F2F2" mask="url(#mask-8)" stroke-width="2" stroke-linejoin="round" xlink:href="#path-7"></use>
                </g>
            </g>
        </g>
    </g>
</svg>