<?xml version="1.0" encoding="UTF-8"?>
<svg width="16px" height="16px" viewBox="0 0 16 16" version="1.1" xmlns="http://www.w3.org/2000/svg" xmlns:xlink="http://www.w3.org/1999/xlink">
    <!-- Generator: sketchtool 51.2 (57519) - http://www.bohemiancoding.com/sketch -->
    <title>Evernote</title>
    <desc>Created with sketchtool.</desc>
    <defs></defs>
    <g id="Page-1" stroke="none" stroke-width="1" fill="none" fill-rule="evenodd">
        <g id="Evernote">
            <g id="Group" transform="translate(0.500000, 0.000000)">
                <path d="M3.24000635,3.43349148 C3.32232081,3.43349148 3.38851535,3.3676598 3.38870003,3.2874493 C3.38870003,3.28693114 3.37126097,2.07794438 3.37126097,1.74173906 C3.37126097,1.46165 4.52540889,0.561174805 4.52540889,0.561174805 C4.51992126,0.562081578 3.51394403,0.561174805 3.51394403,0.561174805 L0.511542853,3.48870097 C0.506081605,3.49310529 0.50159662,4.16181003 0.500013649,4.16766519 C0.557765686,4.13960706 1.44979873,3.43349148 1.80259007,3.43349148 L3.24000635,3.43349148 Z M12.7098566,2.60719632 C11.876767,1.46462823 8.8160737,1.79265545 8.29851018,1.80827203 C8.23639408,1.39298482 7.7508563,0.884434397 7.41693923,0.753089669 C6.52728836,0.403552389 5.15268161,0.487995673 4.79977211,0.584539219 C4.51930931,0.661044938 4.20891424,0.817857099 4.03615467,1.05944866 C3.92029292,1.2208372 3.84532978,1.42760173 3.84474703,1.71645671 C3.84474703,1.87993953 3.84940904,2.26505365 3.85367373,2.60719632 C3.85791193,2.95045077 3.86252097,3.25743029 3.86252097,3.25949871 C3.86236204,3.56508205 3.60862639,3.81378381 3.29417854,3.81417164 L1.85170763,3.81417164 C1.5440409,3.81417164 1.30892683,3.86464111 1.12935966,3.94427531 C0.949501102,4.02398708 0.822116745,4.1314674 0.725326884,4.25859772 C0.532647779,4.51102264 0.499218987,4.82257854 0.500013649,5.14049484 C0.500013649,5.14049484 0.502847945,5.4002885 0.566977188,5.90312163 C0.620272535,6.2921916 1.05254231,9.01014839 1.46314429,9.83676696 C1.62231513,10.1583806 1.72837605,10.2923367 2.04112862,10.4340752 C2.73796794,10.725283 4.32964993,11.0492494 5.07565235,11.1420181 C5.82030385,11.2350195 6.2876712,11.4305111 6.56620032,10.8604802 C6.56712742,10.859084 6.6220121,10.7186641 6.69745203,10.5127011 C6.88415416,9.83676696 6.88415416,9.34351678 6.88415416,9.34351678 C6.88415416,9.34351678 7.07485282,10.183389 7.86761867,10.4829934 C8.21554912,10.6144842 8.94528663,10.7125105 9.68413709,10.7970314 C10.3522096,10.8719858 10.214786,11.4625281 10.214786,12.2620419 C10.214786,12.5754092 9.91324676,13.0781729 9.40027843,13.0781729 C8.47208644,13.0781729 8.49657114,12.9400738 8.49657114,12.847928 C8.49657114,12.7557823 8.78052666,12.7419417 9.21737898,12.7419417 C9.41249505,12.7419417 9.51685308,12.3049233 9.51685308,11.9460523 C9.51685308,11.5890428 9.48729304,10.8604802 9.27088624,10.8604802 C6.69745203,10.8604802 6.4636446,11.6214817 6.4636446,13.4655048 C6.4636446,14.7096816 7.54019134,15.5 9.68413709,15.5 C11.3651126,15.5 11.9377627,14.3649888 12.4328252,13.3212959 C12.6172389,12.932514 13.1033877,11.6532426 13.1033877,9.51356572 L13.1033877,5.60602548 C13.1033877,4.56166609 13.1520827,3.2137018 12.7098566,2.60719632 Z" id="Imported-Layers" stroke="#F2F2F2" fill="#3E3E3E" stroke-linejoin="round"></path>
                <path d="M3.24000635,3.43349148 C3.32232081,3.43349148 3.38851535,3.3676598 3.38870003,3.2874493 C3.38870003,3.28693114 3.37126097,2.07794438 3.37126097,1.74173906 C3.37126097,1.46165 3.430253,1.22088896 3.53306693,1.01917095 L3.58219178,0.928571429 C3.57670415,0.929478201 3.57119014,0.932120795 3.56572889,0.937483706 L0.774635472,3.65544347 C0.769174224,3.65984779 0.765770837,3.66557341 0.764187867,3.67142857 C0.821939904,3.64337044 0.900850979,3.60502692 0.91201092,3.60023398 C1.15507603,3.49253532 1.44979873,3.43349148 1.80259007,3.43349148 L3.24000635,3.43349148 Z" id="Path" fill="#3E3E3E"></path>
                <path d="M9.97168787,7.56034803 C9.76972802,7.55306615 9.57547047,7.56622137 9.39432485,7.59625249 C9.44530426,7.17148493 9.6152442,6.6502723 10.2172597,6.67209137 C10.8836757,6.6957442 10.9770564,7.3455591 10.9794521,7.78571429 C10.6984342,7.65647418 10.3505687,7.57408793 9.97168787,7.56034803 L9.97168787,7.56034803 Z" id="Path" fill="#F2F2F2"></path>
            </g>
        </g>
    </g>
</svg>