<?xml version="1.0" encoding="UTF-8"?>
<svg width="16px" height="16px" viewBox="0 0 16 16" version="1.1" xmlns="http://www.w3.org/2000/svg" xmlns:xlink="http://www.w3.org/1999/xlink">
    <!-- Generator: sketchtool 42 (36781) - http://www.bohemiancoding.com/sketch -->
    <title>Inbox</title>
    <desc>Created with sketchtool.</desc>
    <defs></defs>
    <g id="Page-1" stroke="none" stroke-width="1" fill="none" fill-rule="evenodd">
        <g id="Inbox">
            <g id="Group" transform="translate(1.000000, 1.000000)">
                <path d="M1.85800343,3.30154896 L5.994,0.3185 C6.583,-0.1065 7.437,-0.1055 8.024,0.3185 L9.22206595,1.18238102 L8.52415641,1.88456309 L7.61869812,1.23265076 L7.009,1.0525 L2.945566,3.98327234 L1.85800343,3.30154896 Z M0.98239794,3.93307125 L2.069988,4.6147874 L2.069,4.6155 C2.042,4.6345 1.48155615,5.4531951 1.46255615,5.4691951 L1.46255615,11.6855 L12.5281171,11.6855 L12.5281171,5.4691951 C12.5139894,5.45789296 12.1972171,4.8804968 12.0025473,4.53500405 L12.9958883,3.90354465 L13.104,3.9815 C13.647,4.3735 13.944,4.8055 13.994,5.2695 C14.002,5.3185 14.006,5.3705 14.006,5.4225 L14.006,12.1835 C14.006,13.0115 13.275,13.6855 12.377,13.6855 L1.629,13.6855 C0.731,13.6855 0,13.0115 0,12.1835 L0,5.4225 C0.001,4.9015 0.304,4.4205 0.9,3.9925 L0.98239794,3.93307125 Z M12.12186,3.27331517 L11.4060108,2.75714284 L10.7097857,3.45817359 L11.2356359,3.83677548 L12.12186,3.27331517 Z" id="Combined-Shape" fill="#F2F2F2"></path>
                <path d="M9.13596557,2.3290085 L7.44041543,1.10620761 C7.20279077,0.934836894 6.81750793,0.934854543 6.58020891,1.10599693 L1.48499636,4.78071418 C1.15963417,5.01536859 1.00164394,5.23063611 1.00231813,5.39913587 L1.00231813,5.39913587 L1.0012564,5.39913587 L1.0012564,5.82889015 L1.0012564,9.85126609 L1.0012564,12.159951 C1.0012564,12.4371229 1.28289564,12.6618151 1.6303544,12.6618151 L12.3778164,12.6618151 C12.7252577,12.6618151 13.0069144,12.4371286 13.0069144,12.159951 L13.0069144,9.85126609 L13.0069144,5.82889015 L13.0069144,5.39913587 L13.0019326,5.39913587 C13.0096793,5.2286835 12.8519983,5.00894587 12.5195131,4.7691634 L11.3197984,3.90395029 L10.8238466,4.40332537 L12.1446058,5.35583366 L12.1506294,5.6349443 L7.00647271,8.89560891 L1.86231597,5.6746459 L1.86231597,5.36563439 L6.58020891,1.96304373 C6.81750793,1.79190135 7.20279077,1.7918837 7.44041543,1.96325442 L8.63978964,2.82822196 L9.13596557,2.3290085 Z" id="Combined-Shape" fill="#3E3E3E"></path>
                <polyline id="Page-1" stroke="#F2F2F2" points="12.9834595 4.50434875 7.0039999 8.30391021 0.903076172 4.48193359"></polyline>
                <polygon id="check" fill="#3E3E3E" points="6.83934065 7.34000015 4.85796702 5.34580707 5.52358472 4.67588283 6.83715899 6.00005434 10.6737389 2.1500001 11.3393566 2.81992433 7.47841369 6.69449921 7.3989475 6.77447955"></polygon>
                <polygon id="check-copy" fill="#F2F2F2" points="6.83934065 5.98776464 4.85796702 3.99443047 5.52358472 3.32479477 6.83715899 4.64839595 10.6737389 0.799999952 11.3393566 1.46963565 7.47841369 5.34254172 7.3989475 5.4224876"></polygon>
            </g>
        </g>
    </g>
</svg>